<svg xmlns="http://www.w3.org/2000/svg" width="370" height="132">
  <defs>
    <mask id="a" x="0" y=".7" width="102.88" height="130.6" maskUnits="userSpaceOnUse">
      <path fill="#fff" fill-rule="evenodd" d="M0 .7h102.88v130.6H0V.7z"/>
    </mask>
    <mask id="b" x="15.72" y="41.19" width="71.44" height="90.7" maskUnits="userSpaceOnUse">
      <path fill="#fff" fill-rule="evenodd" d="M15.72 41.19h71.44v90.7H15.72v-90.7z"/>
    </mask>
  </defs>
  <g mask="url(#a)">
    <path d="M74.07 33.65h-.06C53.92 22.55 51.8 5.48 51.62.7c-.16 4.53-2.22 20.19-22.47 32.79a51.43 51.43 0 1044.92.16" fill="#d9e0e8" fill-rule="evenodd"/>
  </g>
  <path d="M51.62 0a12.51 12.51 0 000 1.28 9.07 9.07 0 000-1.28" fill="#d9e0e8" fill-rule="evenodd"/>
  <path d="M70.3 50.51C53.5 41.27 51.74 27 51.59 23.05c-.13 3.78-1.85 16.82-18.72 27.33a42.86 42.86 0 1037.43.13" fill="#b6c4ce" fill-rule="evenodd"/>
  <path d="M51.59 22v1.07a8 8 0 000-1.07" fill="#b6c4ce" fill-rule="evenodd"/>
  <g mask="url(#b)">
    <path d="M67.15 64.08c-14-7.67-15.42-19.53-15.55-22.85C51.46 44.34 50 55.21 36 64a35.73 35.73 0 1031.19.12" fill="#8ea5b5" fill-rule="evenodd"/>
  </g>
  <path d="M51.57 40.3a8.61 8.61 0 000 .89 7.7 7.7 0 000-.89" fill="#8ea5b5" fill-rule="evenodd"/>
  <path d="M64.53 75.38c-11.63-6.39-12.85-16.28-13-19-.09 2.62-1.28 11.68-13 19a29.78 29.78 0 1026 .1M51.55 55.56a6.12 6.12 0 000 .75 5.48 5.48 0 000-.75" fill="#68899c" fill-rule="evenodd"/>
  <path d="M130.35 54.63c5.6 0 9.43-4.27 9.47-9.84s-3.83-9.88-9.47-9.88h-1.17v19.72zm.88-26.5a16.64 16.64 0 110 33.28h-9.64V28.13zM170.4 34.79h-11.46v6.61h10.97v6.66h-10.97v6.7h11.46v6.65h-19.04V28.14h19.04v6.65zM199 52.5l3.22 6.5s-3.71 3-10.93 3c-9.4 0-18-7.66-18-17.18s8.59-17.3 18-17.3c7.22 0 10.93 3.07 10.93 3.07L199 37.05a11.53 11.53 0 00-6.54-2.05c-7.63 0-11 5.33-11 9.76s3.34 9.8 11 9.8a11.57 11.57 0 006.53-2M220.41 54.67c6.05 0 8.55-5 8.55-9.92s-2.66-9.92-8.55-9.92-8.59 5-8.59 9.92 2.38 9.92 8.59 9.92m0-27.14a16.86 16.86 0 0116.74 17.22c0 9.72-7.15 17.25-16.74 17.25-9.84 0-16.78-7.54-16.78-17.26a16.94 16.94 0 0116.78-17.22M266.06 49.59c0 8.23-4.51 12.42-13 12.42s-13-4.19-13-12.42V28.13h7.58v19.24c0 5.57 1.7 7.18 5.41 7.18s5.4-1.61 5.4-7.18V28.13h7.58zM280.22 43c3 0 5.81-1 5.81-4.4s-2.83-4.44-5.81-4.44h-2.14V43zm2.42-14.89c6.49 0 11.37 3.35 11.37 10.25s-4.88 10.69-11.37 10.69h-4.56v12.36h-7.58V28.13zM304.94 54.76h11.46v6.65h-19.04V28.14h7.58v26.62zM339.19 34.79h-11.46v6.61h10.97v6.66h-10.97v6.7h11.46v6.65h-19.04V28.14h19.04v6.65zM352.29 54.63c5.61 0 9.44-4.27 9.48-9.84s-3.83-9.88-9.48-9.88h-1.17v19.72zm.89-26.5a16.64 16.64 0 110 33.28h-9.64V28.13zM130.35 97.09c5.6 0 9.43-4.28 9.47-9.84s-3.83-9.88-9.47-9.88h-1.17v19.72zm.88-26.5a16.64 16.64 0 110 33.28h-9.64V70.59zM164.79 80.88h-.08L161 90.56h7.5zm16.9 23h-8.15l-2.46-6.66h-12.66l-2.42 6.65h-8.15l13.43-33.28h7zM184.83 70.59l6.94 10.65 6.94-10.65h9.11l-12.26 18.35v14.92h-7.58V88.94l-12.26-18.35h9.11zM229.68 73.13l-3.06 6.05a13.74 13.74 0 00-6.74-2.3c-2.58 0-3.95 1.17-3.95 3s3.15 3.18 6.94 4.8 7.78 4.72 7.78 9.07c0 8-6.05 10.73-12.54 10.73a19.4 19.4 0 01-12.5-4.4l3.79-6.37s4.43 3.75 8.14 3.75c1.66 0 4.8-.16 4.8-3.26 0-2.42-3.55-3.51-7.5-5.49s-6.33-5.08-6.33-8.55c0-6.22 5.49-10.16 10.85-10.16a18.91 18.91 0 0110.32 3.14" fill="#0075be" fill-rule="evenodd"/>
</svg>
