<?xml version="1.0" encoding="UTF-8"?>
<svg width="370px" height="132px" viewBox="0 0 370 132" version="1.1" xmlns="http://www.w3.org/2000/svg" xmlns:xlink="http://www.w3.org/1999/xlink">
    <!-- Generator: Sketch 53.2 (72643) - https://sketchapp.com -->
    <title>Brand</title>
    <desc>Created with Sketch.</desc>
    <defs>
        <polygon id="path-1" points="0 0.0523264487 102.880241 0.0523264487 102.880241 130.656913 0 130.656913"></polygon>
        <polygon id="path-3" points="0.00924469306 0.0510952381 71.4539521 0.0510952381 71.4539521 90.7487091 0.00924469306 90.7487091"></polygon>
    </defs>
    <g id="Sessions" stroke="none" stroke-width="1" fill="none" fill-rule="evenodd">
        <g id="Desktop-HD" transform="translate(-161.000000, -150.000000)">
            <g id="Header" transform="translate(161.000000, 150.000000)">
                <g id="Brand">
                    <g id="Group-53">
                        <g id="Group-3" transform="translate(0.000000, 1.231211)">
                            <mask id="mask-2" fill="white">
                                <use xlink:href="#path-1"></use>
                            </mask>
                            <g id="Clip-2"></g>
                            <path d="M74.0681093,33.0090734 C74.0615287,32.9913483 74.0416807,32.9729862 74.0071856,32.9540935 C53.915103,21.9093919 51.8021971,4.83366896 51.6150743,0.0523264487 C51.4618098,4.58307516 49.4022917,20.2398279 29.1543973,32.8417986 C11.904819,41.1462077 -3.18416523e-05,58.7911532 -3.18416523e-05,79.2168302 C-3.18416523e-05,107.626377 23.0305046,130.656913 51.4401575,130.656913 C79.8498104,130.656913 102.880241,107.626377 102.880241,79.2168302 C102.880241,58.9267986 91.1323692,41.3813052 74.0681093,33.0090734" id="Fill-1" fill="#D9E0E8" mask="url(#mask-2)"></path>
                        </g>
                        <path d="M51.6218684,0.000350258176 C51.6218684,0.000350258176 51.5898017,0.459613024 51.6313239,1.28356885 C51.6673647,0.45717183 51.6218684,0.000350258176 51.6218684,0.000350258176" id="Fill-4" fill="#D9E0E8"></path>
                        <path d="M70.2967522,50.5148709 C70.2912329,50.5001176 70.2747814,50.4849398 70.2459116,50.4690189 C53.5025095,41.2651893 51.7417722,27.0353672 51.5858543,23.0509151 C51.4581692,26.8264859 49.7419042,39.8739214 32.8686942,50.3755106 C18.4940987,57.2959753 8.5733012,72.0000258 8.5733012,89.0214056 C8.5733012,112.696099 27.7654326,131.888124 51.4401256,131.888124 C75.1148187,131.888124 94.3069501,112.696099 94.3069501,89.0214056 C94.3069501,72.1129575 84.5171279,57.4916954 70.2967522,50.5148709" id="Fill-6" fill="#B6C4CE"></path>
                        <path d="M51.5940893,21.9816618 C51.5940893,21.9816618 51.5673671,22.3643985 51.6020375,23.0509045 C51.6320486,22.3623818 51.5940893,21.9816618 51.5940893,21.9816618" id="Fill-8" fill="#B6C4CE"></path>
                        <g id="Group-12" transform="translate(15.708548, 41.139415)">
                            <mask id="mask-4" fill="white">
                                <use xlink:href="#path-3"></use>
                            </mask>
                            <g id="Clip-11"></g>
                            <path d="M51.4455069,22.9377074 C51.4408368,22.9253953 51.4270387,22.9127648 51.4031575,22.8996036 C37.4503577,15.2295863 35.9828821,3.3714366 35.8530743,0.0510952381 C35.746617,3.19747504 34.3163962,14.0702318 20.2554409,22.8214854 C8.27650516,28.5885393 0.00924469306,40.8419501 0.00924469306,55.0263448 C0.00924469306,74.7553264 16.0026698,90.7487516 35.7315453,90.7487516 C55.4604208,90.7487516 71.4539521,74.7553264 71.4539521,55.0263448 C71.4539521,40.9360952 63.2956962,28.7516747 51.4455069,22.9377074" id="Fill-10" fill="#8EA5B5" mask="url(#mask-4)"></path>
                        </g>
                        <path d="M51.5710704,40.2994214 C51.5710704,40.2994214 51.5487334,40.6183686 51.5776482,41.1905631 C51.602589,40.6165643 51.5710704,40.2994214 51.5710704,40.2994214" id="Fill-13" fill="#8EA5B5"></path>
                        <path d="M64.5349945,75.3789346 C64.5311736,75.3686391 64.5197106,75.3581314 64.4997565,75.3470929 C52.8723526,68.9555181 51.6496331,59.0737797 51.5413715,56.3068462 C51.4526394,58.9286879 50.2609125,67.9894423 38.5432906,75.282136 C28.5608264,80.0879966 21.6715666,90.2991899 21.6715666,102.119448 C21.6715666,118.560248 34.9994208,131.888103 51.440115,131.888103 C67.8808092,131.888103 81.2087697,118.560248 81.2087697,102.119448 C81.2087697,90.3775204 74.4102585,80.2239604 64.5349945,75.3789346" id="Fill-15" fill="#68899C"></path>
                        <path d="M51.5518377,55.5642458 C51.5518377,55.5642458 51.5332007,55.8300175 51.5573192,56.3067932 C51.5781488,55.8285316 51.5518377,55.5642458 51.5518377,55.5642458" id="Fill-17" fill="#68899C"></path>
                        <path d="M130.345226,35.9909593 C135.95148,35.9909593 139.783198,31.7156867 139.823531,26.1495536 C139.823531,20.5836328 135.991812,16.2680275 130.345226,16.2680275 L129.17547,16.2680275 L129.17547,35.9909593 L130.345226,35.9909593 Z M131.232441,9.49201779 C140.347857,9.49201779 148.011081,16.4292524 148.011081,26.1092209 C148.011081,35.8295221 140.388189,42.766969 131.232441,42.766969 L121.592911,42.766969 L121.592911,9.49201779 L131.232441,9.49201779 Z" id="Fill-19" fill="#0075BE"></path>
                        <polygon id="Fill-21" fill="#0075BE" points="170.395423 16.1470293 158.940707 16.1470293 158.940707 22.7616018 169.911324 22.7616018 169.911324 29.4166133 158.940707 29.4166133 158.940707 36.1119575 170.395423 36.1119575 170.395423 42.766969 151.358042 42.766969 151.358042 9.49201779 170.395423 9.49201779"></polygon>
                        <path d="M198.990829,33.8532487 L202.21745,40.3065964 C202.21745,40.3065964 198.50673,43.3719923 191.287166,43.3719923 C181.889527,43.3719923 173.25821,35.7085557 173.25821,26.1900244 C173.25821,16.6309481 181.849088,8.88695209 191.287166,8.88695209 C198.50673,8.88695209 202.21745,11.9522418 202.21745,11.9522418 L198.990829,18.4055895 C198.990829,18.4055895 196.328761,16.3486188 192.45671,16.3486188 C184.833818,16.3486188 181.486093,21.6726492 181.486093,26.1092527 C181.486093,30.5862952 184.833818,35.9103256 192.45671,35.9103256 C196.328761,35.9103256 198.990829,33.8532487 198.990829,33.8532487" id="Fill-23" fill="#0075BE"></path>
                        <path d="M220.407026,36.0312708 C226.457046,36.0312708 228.957677,31.0703414 228.957677,26.1093058 C228.957677,21.1482702 226.295609,16.1873408 220.407026,16.1873408 C214.558776,16.1873408 211.816042,21.1482702 211.816042,26.1093058 C211.816042,31.0703414 214.195781,36.0312708 220.407026,36.0312708 M220.407026,8.88700516 C229.643334,8.88700516 237.145333,16.3890046 237.145333,26.1093058 C237.145333,35.829607 229.966102,43.3719392 220.407026,43.3719392 C210.56562,43.3719392 203.628386,35.829607 203.628386,26.1093058 C203.628386,16.3890046 211.251383,8.88700516 220.407026,8.88700516" id="Fill-25" fill="#0075BE"></path>
                        <path d="M266.063826,30.9492582 C266.063826,39.1772473 261.546451,43.3719604 253.076572,43.3719604 C244.60648,43.3719604 240.089105,39.1772473 240.089105,30.9492582 L240.089105,9.49201779 L247.671876,9.49201779 L247.671876,28.7309564 C247.671876,34.2969834 249.365852,35.9102937 253.076572,35.9102937 C256.787186,35.9102937 258.481162,34.2969834 258.481162,28.7309564 L258.481162,9.49201779 L266.063826,9.49201779 L266.063826,30.9492582 Z" id="Fill-27" fill="#0075BE"></path>
                        <path d="M280.219988,24.3749759 C283.204612,24.3749759 286.028012,23.3666569 286.028012,19.978599 C286.028012,16.5503144 283.204612,15.5419954 280.219988,15.5419954 L278.082246,15.5419954 L278.082246,24.3749759 L280.219988,24.3749759 Z M282.639954,9.49197533 C289.133528,9.49197533 294.013898,12.8395944 294.013898,19.7367085 C294.013898,26.5932777 289.133528,30.424996 282.639954,30.424996 L278.082246,30.424996 L278.082246,42.7669266 L270.499687,42.7669266 L270.499687,9.49197533 L282.639954,9.49197533 Z" id="Fill-29" fill="#0075BE"></path>
                        <polygon id="Fill-31" fill="#0075BE" points="304.943291 36.1119151 316.3979 36.1119151 316.3979 42.7669266 297.360732 42.7669266 297.360732 9.49197533 304.943291 9.49197533"></polygon>
                        <polygon id="Fill-33" fill="#0075BE" points="339.1854 16.1470293 327.73079 16.1470293 327.73079 22.7616018 338.701407 22.7616018 338.701407 29.4166133 327.73079 29.4166133 327.73079 36.1119575 339.1854 36.1119575 339.1854 42.766969 320.148231 42.766969 320.148231 9.49201779 339.1854 9.49201779"></polygon>
                        <path d="M352.292931,35.9909593 C357.899185,35.9909593 361.730903,31.7156867 361.771236,26.1495536 C361.771236,20.5836328 357.939518,16.2680275 352.292931,16.2680275 L351.123175,16.2680275 L351.123175,35.9909593 L352.292931,35.9909593 Z M353.180146,9.49201779 C362.295562,9.49201779 369.958786,16.4292524 369.958786,26.1092209 C369.958786,35.8295221 362.335895,42.766969 353.180146,42.766969 L343.540616,42.766969 L343.540616,9.49201779 L353.180146,9.49201779 Z" id="Fill-35" fill="#0075BE"></path>
                        <path d="M130.345226,78.4464851 C135.95148,78.4464851 139.783198,74.1712126 139.823531,68.6050795 C139.823531,63.0391586 135.991812,58.7235534 130.345226,58.7235534 L129.17547,58.7235534 L129.17547,78.4464851 L130.345226,78.4464851 Z M131.232441,51.9475436 C140.347857,51.9475436 148.011081,58.8847783 148.011081,68.5647467 C148.011081,78.2850479 140.388189,85.2224948 131.232441,85.2224948 L121.592911,85.2224948 L121.592911,51.9475436 L131.232441,51.9475436 Z" id="Fill-37" fill="#0075BE"></path>
                        <path d="M164.789042,62.2325353 L164.708376,62.2325353 L160.997656,71.9125037 L168.499762,71.9125037 L164.789042,62.2325353 Z M181.68868,85.2225267 L173.541357,85.2225267 L171.081059,78.5674091 L158.41636,78.5674091 L155.956061,85.2225267 L147.808844,85.2225267 L161.239759,51.9475754 L168.257765,51.9475754 L181.68868,85.2225267 Z" id="Fill-39" fill="#0075BE"></path>
                        <polygon id="Fill-41" fill="#0075BE" points="184.834455 51.9475436 191.77169 62.5954983 198.709031 51.9475436 207.824447 51.9475436 195.563075 70.2991615 195.563075 85.2224948 187.98041 85.2224948 187.98041 70.2991615 175.719039 51.9475436"></polygon>
                        <path d="M229.684739,54.4885499 L226.619343,60.53857 C226.619343,60.53857 223.312057,58.2394966 219.883666,58.2394966 C217.302369,58.2394966 215.931055,59.4091466 215.931055,61.2242269 C215.931055,63.0794277 219.077117,64.4105149 222.86829,66.0238253 C226.57901,67.5968029 230.652619,70.7428643 230.652619,75.0989085 C230.652619,83.0444621 224.602705,85.8275287 218.109024,85.8275287 C210.324802,85.8275287 205.605763,81.4311517 205.605763,81.4311517 L209.397148,75.0584696 C209.397148,75.0584696 213.833646,78.8095224 217.544366,78.8095224 C219.198009,78.8095224 222.34407,78.6481913 222.34407,75.5424627 C222.34407,73.1224971 218.794681,72.0335126 214.842071,70.0572074 C210.849022,68.0809022 208.509721,64.9751736 208.509721,61.5064501 C208.509721,55.2952051 213.995083,51.3424885 219.359446,51.3424885 C225.40936,51.3424885 229.684739,54.4885499 229.684739,54.4885499" id="Fill-43" fill="#0075BE"></path>
                        <path d="M127.884853,108.666102 L121.552504,105.600813 C121.552504,105.600813 124.779125,95.9208442 133.813769,95.9208442 C145.228152,95.9208442 146.720464,103.422844 146.720464,107.617451 C146.720464,115.401779 134.983525,123.145775 134.983525,123.145775 L147.325456,123.145775 L147.325456,129.800787 L121.391173,129.800787 L121.391173,127.905147 C121.391173,127.905147 138.532808,113.748136 138.532808,107.617451 C138.532808,106.407574 138.250479,102.333859 133.813769,102.333859 C130.183821,102.333859 127.884853,108.666102 127.884853,108.666102" id="Fill-45" fill="#00588E"></path>
                        <path d="M164.224447,123.750777 C167.854395,123.750777 170.072803,120.362826 170.072803,113.183382 C170.072803,106.447917 167.854395,102.575866 164.224447,102.575866 C160.55406,102.575866 158.335758,106.488144 158.335758,113.183382 C158.335758,120.362826 160.55406,123.750777 164.224447,123.750777 M164.224447,95.9208548 C171.363452,95.9208548 177.736028,101.648213 177.736028,113.183382 C177.736028,125.525525 171.363452,130.405789 164.224447,130.405789 C157.085336,130.405789 150.672427,125.525525 150.672427,113.183382 C150.672427,101.648213 157.085336,95.9208548 164.224447,95.9208548" id="Fill-47" fill="#00588E"></path>
                        <polygon id="Fill-49" fill="#00588E" points="180.034262 102.656511 189.512567 96.525825 193.102183 96.525825 193.102183 129.800776 185.519624 129.800776 185.519624 106.609121 180.034262 110.15851"></polygon>
                        <path d="M209.436696,102.172454 C206.492404,102.172454 204.314329,104.310196 204.314329,107.214155 C204.314329,110.198779 206.57307,112.376854 209.436696,112.376854 C212.219762,112.376854 214.478397,110.198779 214.478397,107.214155 C214.478397,104.310196 212.380987,102.172454 209.436696,102.172454 L209.436696,102.172454 Z M209.719025,118.386542 C209.719025,118.386542 208.872037,118.870429 207.339392,118.870429 C202.781684,118.870429 196.73177,114.958151 196.73177,107.214155 C196.73177,99.3491606 203.064013,95.9208761 209.073701,95.9208761 C216.535367,95.9208761 222.343285,100.841473 222.343285,107.214155 C222.343285,113.062511 220.56875,115.764806 217.100026,120.483739 L209.275365,129.800819 L199.918058,129.800819 L209.719025,118.386542 Z" id="Fill-51" fill="#00588E"></path>
                    </g>
                </g>
            </g>
        </g>
    </g>
</svg>