<svg id="Layer_1" xmlns="http://www.w3.org/2000/svg" viewBox="609 -108.4 1418.3 416.4"><style>.st0{fill:#fff}.st1{fill:#38a5d9}.st2{fill:#444}</style><path class="st0" d="M670-40.4h250.5v275H670z"/><path class="st1" d="M617.1-4.3c12.2-20.8 154.8-104.1 178.7-104.1 23.9 0 173.8 87.6 181 104.1s7.7 198.3 0 208.2S818.9 308 795.6 308c-23.3 0-169.1-89.2-178.4-104.1-9.4-14.9-12.3-187.4-.1-208.2M682 34.8c-1.5 2.2-1.2 129.3.3 131.7 1.3 2.2 110 66.1 113.2 66.1 2.6 0 111.7-59.7 112.6-60.3 1.5-.8 1.8-4.2.1-5.5-1.9-1.5-56.8-32.4-58.4-33.4-1.6-.9-3.5-1.1-5.6-.2-2.1.9-48.7 23.1-48.7 23.1l-49.2-27.8V70.8l48.9-31.1s50.4 28.6 51.3 29.1c1.8 1 2.8.6 4.1-.1.7-.4 55.9-32.2 57.5-33.1 1.8-1.1 1.8-5 .4-6.2-.7-.6-109.9-65.8-113-65.8-3.1 0-111.7 68.7-113.5 71.2"/><path class="st2" d="M1047.7 127.9V71.3c0-23.3 19-40 44.5-40 16.4 0 32.6 4.5 43.4 23.1.9 1.7 1.3 4.8-1.5 6.5l-15.6 10.8c-3.7 1.5-5.6 0-7.1-2.6-4.3-7.6-9.9-10.6-17.5-10.6-10.8 0-15.6 7.8-15.6 14.3v55.1c0 6.3 4.3 12.8 14.9 12.8 7.1 0 13.6-4.1 17.9-10.2 1.5-1.5 2.8-4.8 6.1-3l17.5 9.3c3 1.5 4.5 3.7 2.8 6.5-11.2 19-27 25.1-45.4 25.1-27.6-.1-44.4-17-44.4-40.5zM1227.9 37.6c0-3.2 1.9-4.1 5.4-4.1h19.9c3.5 0 5.4.9 5.4 4.1v125.1c0 3.2-1.9 4.3-5.4 4.3h-19.9c-3.5 0-5.4-1.1-5.4-4.3v-50.6h-37.2v50.6c0 3.2-1.9 4.3-5.4 4.3h-20.1c-3.5 0-5.4-1.1-5.4-4.3V37.6c0-3.2 1.9-4.1 5.4-4.1h20.1c3 0 5.4.6 5.4 4.1v47.1h37.2V37.6zM1337.9 33.5c24.8 0 42.4 13.8 42.4 40.2 0 14.9-8.2 28.1-17.7 38-1.5 1.9-1.3 2.6-.2 5.2l21 45.2c1.1 2.4.2 5-3.7 5H1358c-6.9 0-8.2-2.6-9.5-5.4l-18.4-42.4h-13.4v43.4c0 3.2-1.9 4.3-5.4 4.3h-20.1c-3.5 0-5.4-1.1-5.4-4.3V38.6c0-3.2 1.1-5.2 4.5-5.2l47.6.1zm-2.4 58.3c4.1 0 7.8-2.8 10.2-6.5 2.6-4.1 3.7-8.4 3.7-11 0-9.7-6.3-13.4-13.2-13.4h-19.4v30.9h18.7zM1449.8 168.3c-26.8 0-47.5-16-47.5-41.7V73.4c0-25.7 19.9-42.1 47.3-42.1 27 0 47.8 16.4 47.8 42.1v53.2c0 25.7-20.4 41.7-47.6 41.7zm16.4-94.9c0-7.6-4.3-14.7-16.4-14.7-11 0-16.9 7.1-16.9 14.7v53.2c0 7.1 5.8 14 16.6 14 10.2 0 16.6-6.7 16.6-14V73.4h.1zM1643 167h-19.2c-3 0-5.2-.6-5.2-3.9v-54.9l-.4-.2-9.1 23.1-11 27.9c-1.5 3-2.8 4.5-6 4.5h-11.5c-3.5 0-5.4.2-7.3-3.7l-10.7-28.2-8.9-22.9-.4.2v54.2c0 3.2-1.9 3.9-5.4 3.9h-19.4c-3.2 0-5.4-1.5-5.4-4.8v-124c0-2.8 1.7-4.8 5.4-4.8h18.4c3 0 6-.4 8.2 4.5 5.6 13.4 12.1 30 17.7 43.2l13 33.5h1.1l13.4-33.5 17.9-43.2c1.1-2.8 4.3-4.5 8.2-4.5h16.6c3.5 0 5.6 1.7 5.6 4.8v124c0 3.3-2.1 4.8-5.6 4.8zM1768.5 161.6c.4 1.7.9 5.4-3.5 5.4h-24c-2.6 0-3.7-1.3-4.3-3.9l-4.1-20.3h-33.1l-4.1 20.3c-.6 2.8-2.2 3.9-4.1 3.9h-24c-4.5 0-3.9-3-3.2-5.4l31.1-124.5c.9-2.6 2.8-3.7 5.4-3.7h30.7c2.2 0 4.5 0 5.4 3.7l31.8 124.5zM1721 93.1l-5-24.4h-.6l-4.5 24.4-4.5 24.2h19.9l-5.3-24.2zM1858.4 60.9h-27.2l-.4 101.8c0 3.2-1.9 4.3-5.4 4.3h-20.1c-3 0-5.2-1.1-5.2-4.3l.2-101.8h-24.8c-3.5 0-4.5-1.9-4.5-5.2V38.6c0-3.2 1.1-5.2 4.5-5.2h83c3 0 4.1 1.7 4.1 5.2v17.1c-.1 3.3-.7 5.2-4.2 5.2zM1883.9 167c-3.2 0-5.2-1.1-5.2-4.3V38c0-3.2 1.9-4.5 5.2-4.5h20.3c2.8 0 5.2 1.1 5.2 4.5v124.7c0 3.2-1.9 4.3-5.2 4.3h-20.3zM1936.7 127.9V71.3c0-23.3 19-40 44.5-40 16.4 0 32.6 4.5 43.4 23.1.9 1.7 1.3 4.8-1.5 6.5l-15.6 10.8c-3.7 1.5-5.6 0-7.1-2.6-4.3-7.6-9.9-10.6-17.5-10.6-10.8 0-15.6 7.8-15.6 14.3v55.1c0 6.3 4.3 12.8 14.9 12.8 7.1 0 13.6-4.1 17.9-10.2 1.5-1.5 2.8-4.8 6.1-3l17.5 9.3c3 1.5 4.5 3.7 2.8 6.5-11.2 19-27 25.1-45.4 25.1-27.6-.1-44.4-17-44.4-40.5z"/></svg>