<svg id="Layer_1" data-name="Layer 1" xmlns="http://www.w3.org/2000/svg" viewBox="0 0 43.66 65"><defs><style>.cls-1{fill:#dde3e6;}.cls-2{fill:#9cafb8;}.cls-3{fill:#8a9faa;}.cls-4{fill:#68889c;}</style></defs><title>decoupled-drupal-days-logo</title><path class="cls-1" d="M42.91,31.79C40.67,28.87,34,20,31.07,15a44,44,0,0,1-4.73-12A49.37,49.37,0,0,1,22,14.31C19.25,19,9,32.76,9,32.76H9a21.83,21.83,0,1,0,33.93-1Z" transform="translate(-4.51 -3.06)"/><path class="cls-2" d="M41.32,35.48c-2-2.64-8.06-10.63-10.7-15.15A39.58,39.58,0,0,1,26.34,9.51a44.61,44.61,0,0,1-3.92,10.17c-2.49,4.26-11.78,16.68-11.78,16.68h0a19.73,19.73,0,1,0,30.67-.88Z" transform="translate(-4.51 -3.06)"/><path class="cls-3" d="M39.29,39.9c-1.75-2.28-7-9.19-9.25-13.1a34.11,34.11,0,0,1-3.7-9.35A38.69,38.69,0,0,1,23,26.24C20.8,29.92,12.77,40.66,12.77,40.66h0a17.06,17.06,0,1,0,26.52-.76Z" transform="translate(-4.51 -3.06)"/><path class="cls-4" d="M37.34,44.13c-1.48-1.93-5.92-7.8-7.86-11.13a28.94,28.94,0,0,1-3.14-7.94,32.75,32.75,0,0,1-2.88,7.47c-1.83,3.13-8.65,12.25-8.65,12.25h0a14.49,14.49,0,1,0,22.53-.65Z" transform="translate(-4.51 -3.06)"/></svg>