<svg id="Layer_1" data-name="Layer 1" xmlns="http://www.w3.org/2000/svg" viewBox="0 0 36.79 15.98"><defs><style>.cls-1{fill:#022635;}</style></defs><title>Mediacurrent-logo-small</title><path class="cls-1" d="M26.73,7.41c-3.37,0-4.6,2.46-5.34,3.77h-.07c-.15-1.9-.59-3.77-4.07-3.77-3.2,0-4.47,2.54-5.08,3.66H12.1V7.41l-6,.81V9c1.34,0,2.53.3,2.53,2.73v3.24c1.2-.33,2.36-.63,3.55-.9.3-2,1.49-4.55,3.91-4.55,1.3,0,1.67,1,1.78,3.74a26.88,26.88,0,0,1,3.59,0,.56.56,0,0,1,.22,0c.57-1.82,1.84-3.77,3.67-3.77s1.83,1.09,1.83,4.6c1.15.26,2.31.52,3.43.82V13.34C30.61,9.53,30.34,7.41,26.73,7.41Z" transform="translate(-0.37 -7.41)"/><path class="cls-1" d="M30.61,16.55a46.64,46.64,0,0,0-9.15-1.67l-1.89,0a54.43,54.43,0,0,0-19.2,4,76,76,0,0,1,8.29-1.68v2.5c0,2.35-.59,2.95-2.53,2.95v.75h8.24v-.75c-1.71,0-2.24-.6-2.24-2.95V16.77c2-.18,3.91-.29,5.81-.29v3.2c0,2.35-.52,2.95-2.24,2.95v.75h7.91v-.75c-1.75,0-2.24-.6-2.24-2.95V16.55a32.73,32.73,0,0,1,5.81.94v2.2c0,2.36-.48,2.95-2.24,2.95v.75h8.24v-.75c-2,0-2.54-.59-2.54-2.95V18.3c1.42.33,2.87.72,4.44,1.05s2.2-.52,2.06-1.12C35.71,17.93,30.61,16.55,30.61,16.55Z" transform="translate(-0.37 -7.41)"/><path class="cls-1" d="M33.93,23.31v-.55h-.21v-.07h.5v.07H34v.55Z" transform="translate(-0.37 -7.41)"/><path class="cls-1" d="M34.3,23.31v-.62h.13l.14.44a.23.23,0,0,1,0,.09l0-.1.15-.43h.11v.62h-.08v-.52l-.18.52h-.08l-.18-.53v.53Z" transform="translate(-0.37 -7.41)"/></svg>